<?xml version="1.0" encoding="iso-8859-1"?>
<svg width="22" height="16" viewBox="0 0 22 16" fill="none" xmlns="http://www.w3.org/2000/svg">
<g id="icons">
<path id="Vector" fill-rule="evenodd" clip-rule="evenodd" d="M20 0H2C1.46957 0 0.960859 0.210714 0.585786 0.585786C0.210714 0.960859 0 1.46957 0 2V14C0 14.5304 0.210714 15.0391 0.585786 15.4142C0.960859 15.7893 1.46957 16 2 16H20C20.5304 16 21.0391 15.7893 21.4142 15.4142C21.7893 15.0391 22 14.5304 22 14V2C22 1.46957 21.7893 0.960859 21.4142 0.585786C21.0391 0.210714 20.5304 0 20 0ZM10 6V6.49C10 6.62261 9.94732 6.74979 9.85355 6.84355C9.75979 6.93732 9.63261 6.99 9.5 6.99H8.5C8.36819 6.98744 8.2425 6.93394 8.14928 6.84072C8.05606 6.7475 8.00256 6.62181 8 6.49V6H6V10H8V9.5C8 9.36739 8.05268 9.24021 8.14645 9.14645C8.24021 9.05268 8.36739 9 8.5 9H9.5C9.63181 9.00256 9.7575 9.05606 9.85072 9.14928C9.94394 9.2425 9.99744 9.36819 10 9.5V10C10 10.5304 9.78929 11.0391 9.41421 11.4142C9.03914 11.7893 8.53043 12 8 12H6C5.46957 12 4.96086 11.7893 4.58579 11.4142C4.21071 11.0391 4 10.5304 4 10V6C4 5.46957 4.21071 4.96086 4.58579 4.58579C4.96086 4.21071 5.46957 4 6 4H8C8.53043 4 9.03914 4.21071 9.41421 4.58579C9.78929 4.96086 10 5.46957 10 6ZM18 6V6.49C18 6.62261 17.9473 6.74979 17.8536 6.84355C17.7598 6.93732 17.6326 6.99 17.5 6.99H16.5C16.3682 6.98744 16.2425 6.93394 16.1493 6.84072C16.0561 6.7475 16.0026 6.62181 16 6.49V6H14V10H16V9.5C16 9.36739 16.0527 9.24021 16.1464 9.14645C16.2402 9.05268 16.3674 9 16.5 9H17.5C17.6318 9.00256 17.7575 9.05606 17.8507 9.14928C17.9439 9.2425 17.9974 9.36819 18 9.5V10C18 10.5304 17.7893 11.0391 17.4142 11.4142C17.0391 11.7893 16.5304 12 16 12H14C13.4696 12 12.9609 11.7893 12.5858 11.4142C12.2107 11.0391 12 10.5304 12 10V6C12 5.46957 12.2107 4.96086 12.5858 4.58579C12.9609 4.21071 13.4696 4 14 4H16C16.5304 4 17.0391 4.21071 17.4142 4.58579C17.7893 4.96086 18 5.46957 18 6Z" fill="#1196AB"/>
</g>
</svg>
