<?xml version="1.0" encoding="iso-8859-1"?>
<svg width="22" height="16" viewBox="0 0 22 16" fill="none" xmlns="http://www.w3.org/2000/svg">
<g id="icons">
<path id="Vector" d="M20 2V14H2V2H20ZM20 0H2C1.46957 0 0.960859 0.210714 0.585786 0.585786C0.210714 0.960859 0 1.46957 0 2V14C0 14.5304 0.210714 15.0391 0.585786 15.4142C0.960859 15.7893 1.46957 16 2 16H20C20.5304 16 21.0391 15.7893 21.4142 15.4142C21.7893 15.0391 22 14.5304 22 14V2C22 1.46957 21.7893 0.960859 21.4142 0.585786C21.0391 0.210714 20.5304 0 20 0Z" fill="white"/>
<path id="Vector_2" d="M8 4H6C5.46957 4 4.96086 4.21071 4.58579 4.58579C4.21071 4.96086 4 5.46957 4 6V10C4 10.5304 4.21071 11.0391 4.58579 11.4142C4.96086 11.7893 5.46957 12 6 12H8C8.53043 12 9.03914 11.7893 9.41421 11.4142C9.78929 11.0391 10 10.5304 10 10V9.5C9.99744 9.36819 9.94394 9.2425 9.85072 9.14928C9.7575 9.05606 9.63181 9.00256 9.5 9H8.5C8.36739 9 8.24021 9.05268 8.14645 9.14645C8.05268 9.24021 8 9.36739 8 9.5V10H6V6H8V6.5C8.00256 6.63181 8.05606 6.7575 8.14928 6.85072C8.2425 6.94394 8.36819 6.99744 8.5 7H9.5C9.63261 7 9.75979 6.94732 9.85355 6.85355C9.94732 6.75979 10 6.63261 10 6.5V6C10 5.46957 9.78929 4.96086 9.41421 4.58579C9.03914 4.21071 8.53043 4 8 4Z" fill="white"/>
<path id="Vector_3" d="M16 4H14C13.4696 4 12.9609 4.21071 12.5858 4.58579C12.2107 4.96086 12 5.46957 12 6V10C12 10.5304 12.2107 11.0391 12.5858 11.4142C12.9609 11.7893 13.4696 12 14 12H16C16.5304 12 17.0391 11.7893 17.4142 11.4142C17.7893 11.0391 18 10.5304 18 10V9.5C17.9974 9.36819 17.9439 9.2425 17.8507 9.14928C17.7575 9.05606 17.6318 9.00256 17.5 9H16.5C16.3674 9 16.2402 9.05268 16.1464 9.14645C16.0527 9.24021 16 9.36739 16 9.5V10H14V6H16V6.5C16.0026 6.63181 16.0561 6.7575 16.1493 6.85072C16.2425 6.94394 16.3682 6.99744 16.5 7H17.5C17.6326 7 17.7598 6.94732 17.8536 6.85355C17.9473 6.75979 18 6.63261 18 6.5V6C18 5.46957 17.7893 4.96086 17.4142 4.58579C17.0391 4.21071 16.5304 4 16 4Z" fill="white"/>
</g>
</svg>
