<svg width="24" height="24" viewBox="0 0 24 24" fill="none" xmlns="http://www.w3.org/2000/svg">
<path d="M21.0206 11H5.77081L11.0206 5.70995C11.205 5.52297 11.3091 5.26885 11.31 5.00349C11.311 4.73812 11.2086 4.48326 11.0255 4.29495C10.8423 4.10665 10.5934 4.00033 10.3335 3.9994C10.0736 3.99846 9.824 4.10297 9.63957 4.28995L2 12L9.63957 19.71C9.822 19.8947 10.0682 19.9988 10.3252 20C10.4548 19.9994 10.5829 19.9726 10.7023 19.9211C10.8217 19.8696 10.9299 19.7944 11.0206 19.7C11.203 19.5126 11.3054 19.2591 11.3054 18.995C11.3054 18.7308 11.203 18.4773 11.0206 18.29L5.77081 13H21.0206C21.2803 13 21.5295 12.8946 21.7131 12.7071C21.8968 12.5195 22 12.2652 22 12C22 11.7347 21.8968 11.4804 21.7131 11.2928C21.5295 11.1053 21.2803 11 21.0206 11Z" fill="#0F1111"/>
</svg>
