<?xml version="1.0" encoding="iso-8859-1"?>
<svg width="16" height="20" viewBox="0 0 16 20" fill="none" xmlns="http://www.w3.org/2000/svg">
<g id="icons">
<path id="Vector" d="M5.70994 4.70994L6.99994 3.40994V11.9999C6.99994 12.2652 7.1053 12.5195 7.29283 12.707C7.48037 12.8946 7.73472 12.9999 7.99994 12.9999C8.26516 12.9999 8.51951 12.8946 8.70705 12.707C8.89458 12.5195 8.99994 12.2652 8.99994 11.9999V3.40994L10.2899 4.70994C10.3829 4.80367 10.4935 4.87806 10.6154 4.92883C10.7372 4.9796 10.8679 5.00574 10.9999 5.00574C11.132 5.00574 11.2627 4.9796 11.3845 4.92883C11.5064 4.87806 11.617 4.80367 11.7099 4.70994C11.8037 4.61698 11.8781 4.50637 11.9288 4.38452C11.9796 4.26266 12.0057 4.13195 12.0057 3.99994C12.0057 3.86793 11.9796 3.73722 11.9288 3.61536C11.8781 3.4935 11.8037 3.3829 11.7099 3.28994L8.70994 0.289939C8.61698 0.196211 8.50638 0.121816 8.38452 0.0710475C8.26266 0.0202789 8.13195 -0.00585938 7.99994 -0.00585938C7.86793 -0.00585937 7.73722 0.0202789 7.61536 0.0710475C7.49351 0.121816 7.3829 0.196211 7.28994 0.289939L4.28994 3.28994C4.10164 3.47824 3.99585 3.73364 3.99585 3.99994C3.99585 4.26624 4.10164 4.52164 4.28994 4.70994C4.47825 4.89824 4.73364 5.00403 4.99994 5.00403C5.26624 5.00403 5.52164 4.89824 5.70994 4.70994Z" fill="white"/>
<path id="Vector_2" d="M14 7H11V9H14V18H2V9H5V7H2C1.46957 7 0.960859 7.21071 0.585786 7.58579C0.210714 7.96086 0 8.46957 0 9V18C0 18.5304 0.210714 19.0391 0.585786 19.4142C0.960859 19.7893 1.46957 20 2 20H14C14.5304 20 15.0391 19.7893 15.4142 19.4142C15.7893 19.0391 16 18.5304 16 18V9C16 8.46957 15.7893 7.96086 15.4142 7.58579C15.0391 7.21071 14.5304 7 14 7Z" fill="white"/>
</g>
</svg>
